# xmcd
#
# Track frame offsets:
#	150
#	12170
#	23382
#	35082
#	49669
#	62982
#	76664
#	87014
#	102736
#	113660
#	129759
#	140991
#	154649
#	168685
#	178005
#	192614
#	203829
#	214067
#	226274
#	237993
#
# Disc length: 3345
#
# Revision: 1
# Processed by: cddbd v1.5.1PL0 Copyright (c) Steve Scherf et al.
# Submitted via: CDex 1.51
# Normalized: r0:DSETVAR1,TDELIM( - )
#
DISCID=0e0d0f14
DTITLE=Various Artist - "It's Trad Jazz !" CD3
DYEAR=2003
DGENRE=Jazz
TTITLE0=Terry Lightfoot - Winter Wonderland
TTITLE1=Dick Charlesworth - I'm In The Doghouse
TTITLE2=The Joe Daniels Jazz Group - Mountain Wine
TTITLE3=Crane River band - T'Aint Nobody's Buziness If I Do
TTITLE4=Freddy Randall and His Band - Shine
TTITLE5=Teddy Layton - Down By The Riverside
TTITLE6=Dougie Richfords London Jazzmen - Twelve Over The Eight
TTITLE7=Humphrey Lyttelton - Looking For Turner
TTITLE8=Freddie Randall and His Band - Muskat Ramble
TTITLE9=Acker Bilk - Buona Sera
TTITLE10=Dougie Richards - Cascading
TTITLE11=The Crane River Jazz Band - Lily Of The Valley (Polka)
TTITLE12=Mike Daniels - Hiawatha
TTITLE13=Harry Gold - Inn For Trouble
TTITLE14=Humphrey Lyttelton - Sugar Rose
TTITLE15=Dick Charlesworth - You're Just In Love
TTITLE16=Harry Gold - Alexander's Ragtime band
TTITLE17=Teddy Layton - Wooden Joe's Weary Blues
TTITLE18=Crane River band - Til' We Meet Again
TTITLE19=Humphrey Lyttelton - Doin' The Rounds
EXTD=YEAR: 2003
EXTT0=
EXTT1=
EXTT2=
EXTT3=
EXTT4=
EXTT5=
EXTT6=
EXTT7=
EXTT8=
EXTT9=
EXTT10=
EXTT11=
EXTT12=
EXTT13=
EXTT14=
EXTT15=
EXTT16=
EXTT17=
EXTT18=
EXTT19=
PLAYORDER=
